<svg style="opacity:1;" width="135" fill="#fff" xmlns="http://www.w3.org/2000/svg" viewBox="0 0 1513.32 306.71">
  <title>Spring</title>
  <path d="M89.81 306.71c-23.5 0-56.67-6.86-89.81-36.68l26-28.91c46.47 41.83 94.89 25.31 109.84 11.35 1-1 2-1.95 3-2.94-48.94-4.76-84.72-39.44-87.19-41.88-37.48-36.91-46-87-19.32-114.12s76.87-19.45 114.37 17.35c3.29 3.14 39.83 39 47 84.4a86.6 86.6 0 0 0 34.85-69.34 84.6 84.6 0 0 0-25.5-61.23C186 48.06 161.87 38.89 135.24 38.89V0c36.81 0 70.53 13.08 94.95 36.83 24.05 23.38 37.28 55 37.28 89.11a125.64 125.64 0 0 1-78.16 116.12C184 256.12 175 269.11 162.4 280.9c-12.39 11.57-36.62 24.39-67.48 25.7-1.65.08-3.35.11-5.11.11zM73.45 116c-5.43 0-10.1 1.47-13.36 4.79C50.52 130.53 56.57 157.9 79 180l.1.11c.32.31 35.42 34.35 77 30.86v-.07c.19-36.72-35.89-71.53-36.26-71.88l-.25-.24C106.25 125.65 87.34 116 73.45 116zM531.93 109.88c-2.16-11.8-11.91-30.23-39.16-30.13-20.28.07-33.55 13.14-33.5 27.37 0 11.8 7.65 21.16 23.4 24.13l30 5.64c39.07 7.42 60.05 32.77 60.16 63 .12 33-27.3 66.4-77.25 66.58-56.9.21-82.16-36.33-85.61-66.89l38.71-10.43c1.9 21.18 16.8 40.2 47.07 40.09 22.4-.09 34.77-11.33 34.72-26.47-.05-12.41-9.47-22.06-26.13-25.33l-30-5.94c-34.23-6.84-56.41-28.86-56.53-61.25-.14-38.14 34-67.32 74.52-67.47 52.07-.19 72.16 31.22 77.09 55.42zM654.49 180.57l.29 80.82-41.77.15-.79-214.62 80.22-.29c42.38-.15 70.63 27.9 70.77 66.64.15 39.05-27.9 67-70.28 67.16zm33.16-36.15c20.89-.07 33.56-12.23 33.49-30.69-.07-19.07-12.83-30.83-33.71-30.73l-33 .12.22 61.45zM863.65 178.67l-21.79.08.3 82.64h-42.08l-.78-214.47 83.85-.3c41.77-.16 68.51 28.5 68.65 65.74.11 30-17.37 52.73-45.49 61L952.65 261l-46.62.17zm12-36.07c21.19-.07 33.55-12.23 33.49-29.79-.09-18.16-12.54-29.92-33.73-29.81l-33.9.12.22 59.64zM1221.16 261l-98-151.9.55 152.26-41.77.15-.78-214.62 52.06-.19L1223 188.38l-.52-142 41.77-.16.79 214.62zM1035.59 261.39l-41.77.15L993 46.92l42-.19zM1479.07 258.7l-2.81-24.51c-9.63 14.57-30.77 29.17-63.16 29.29-57.82.21-107.31-42-107.56-111.3S1356.89 40 1415 39.77c56.3-.2 87.6 32.68 98.31 65.64l-39.9 14.37c-5.52-19-23.46-41.08-58.27-41-32.39.12-67.42 22.35-67.24 73.2.18 48.43 32.06 73.44 68.08 73.31 39.65-.14 55-26.84 57.36-42l-67.81.25-.13-36.33 107.16-.39.4 111.7z">
  </path>
</svg>