<svg width="42" height="18" fill="#ed2761" xmlns="http://www.w3.org/2000/svg">
  <title>Teespring</title>
  <path id="teespring-logo" d="M27.22 2.52c-1.328 0-2.408 1.06-2.408 2.363 0 1.855.7 3.55 1.854 4.852.478.538 1.033 1.008 1.65 1.393.37-.553.68-1.15.918-1.78.358-.95.554-1.977.554-3.048 0-.636-.07-1.256-.202-1.855-.01-.05-.023-.1-.035-.15-.267-1.02-1.21-1.775-2.33-1.775zM12.364 9.348c.238.63.548 1.227.92 1.78.615-.385 1.17-.855 1.648-1.393 1.155-1.3 1.856-2.997 1.856-4.852 0-1.303-1.08-2.363-2.41-2.363-1.12 0-2.062.756-2.33 1.774-.01.05-.024.1-.035.15-.13.6-.2 1.22-.2 1.856 0 1.07.195 2.098.553 3.048zm26.74-1.156L41.4 9.32c-1.66 3.25-5.085 5.484-9.044 5.484-1.164 0-2.28-.195-3.322-.55-2.097 2.088-5.01 3.385-8.235 3.385-3.225 0-6.14-1.298-8.236-3.387-1.04.356-2.16.55-3.323.55-4.12 0-7.665-2.42-9.24-5.89l2.35-1.025c1.176 2.587 3.82 4.396 6.89 4.396.56 0 1.107-.062 1.632-.176-1.035-1.7-1.63-3.685-1.63-5.808 0-.808.087-1.597.25-2.357.024-.11.05-.216.077-.324C10.136 1.534 12.073 0 14.376 0c.046 0 .09.002.136.003.14.004.28.013.418.028 2.49.27 4.424 2.34 4.424 4.853 0 3.378-1.722 6.36-4.35 8.15 1.566 1.3 3.588 2.086 5.795 2.086 2.206 0 4.228-.787 5.794-2.086-2.628-1.79-4.35-4.773-4.35-8.15C22.243 2.37 24.177.3 26.665.03c.138-.014.277-.023.418-.027.046 0 .09-.003.137-.003 2.304 0 4.24 1.535 4.808 3.62.027.107.053.214.077.323.164.76.25 1.55.25 2.357 0 2.123-.595 4.11-1.63 5.808.526.114 1.07.176 1.63.176 2.95 0 5.506-1.668 6.747-4.092z"></path>
</svg>