<svg style="opacity:1;" width="23" height="26" viewBox="0 0 23 26" fill="#000" xmlns="http://www.w3.org/2000/svg">
  <title>Spring</title>
  <path d="M7.62368 26C5.62969 26 2.81369 25.4182 0 22.8911L2.20813 20.4399C6.15236 23.9857 10.2624 22.5853 11.5334 21.4011C11.6232 21.3183 11.7084 21.2355 11.789 21.1504C7.63519 20.7457 4.59815 17.807 4.38862 17.6001C1.20422 14.4751 0.483532 10.2257 2.74692 7.92854C5.00801 5.63368 9.26999 6.27983 12.4521 9.4002C12.7307 9.66693 15.8322 12.7022 16.4447 16.5538C18.2545 15.204 19.4034 13.0471 19.4034 10.6764C19.4034 8.68506 18.6344 6.8409 17.2391 5.48651C15.7862 4.07464 13.7415 3.29743 11.4804 3.29743V0C14.605 0 17.467 1.10834 19.5416 3.12267C21.5816 5.1048 22.7053 7.78827 22.7053 10.6764C22.7053 15.0523 20.009 18.9223 16.0717 20.5204C15.6227 21.7115 14.8605 22.8129 13.7876 23.8132C12.7353 24.7928 10.6791 25.8804 8.05886 25.9908C7.9184 25.9977 7.77335 26 7.62368 26ZM6.23525 9.83479C5.77475 9.83479 5.37871 9.95896 5.10241 10.2418C4.28962 11.0673 4.80308 13.3875 6.70727 15.2569C6.70958 15.2592 6.71418 15.2638 6.71648 15.2661C6.74411 15.2914 9.72359 18.1795 13.2488 17.8829C13.2488 17.8806 13.2488 17.8783 13.2488 17.876C13.2649 14.7625 10.2025 11.8123 10.1703 11.7824C10.1634 11.7755 10.1542 11.7686 10.1496 11.7617C9.01902 10.6511 7.41415 9.83479 6.23525 9.83479Z"></path>
</svg>